<svg id="visual" viewBox="0 0 1920 300" width="1920" height="300" xmlns="http://www.w3.org/2000/svg" xmlns:xlink="http://www.w3.org/1999/xlink" version="1.1"><path d="M0 233L87 158L175 158L262 206L349 125L436 185L524 136L611 163L698 201L785 152L873 163L960 158L960 0L873 0L785 0L698 0L611 0L524 0L436 0L349 0L262 0L175 0L87 0L0 0Z" fill="#fcaf3c"></path><path d="M0 303L87 222L175 239L262 293L349 174L436 233L524 195L611 239L698 239L785 222L873 201L960 239L960 156L873 161L785 150L698 199L611 161L524 134L436 183L349 123L262 204L175 156L87 156L0 231Z" fill="#e2695c"></path><path d="M0 341L87 287L175 298L262 368L349 249L436 341L524 239L611 314L698 357L785 320L873 293L960 320L960 237L873 199L785 220L698 237L611 237L524 193L436 231L349 172L262 291L175 237L87 220L0 301Z" fill="#99426b"></path><path d="M0 482L87 449L175 455L262 492L349 433L436 460L524 401L611 401L698 455L785 411L873 422L960 487L960 318L873 291L785 318L698 355L611 312L524 237L436 339L349 247L262 366L175 296L87 285L0 339Z" fill="#412e55"></path><path d="M0 541L87 541L175 541L262 541L349 541L436 541L524 541L611 541L698 541L785 541L873 541L960 541L960 485L873 420L785 409L698 453L611 399L524 399L436 458L349 431L262 490L175 453L87 447L0 480Z" fill="#001122"></path></svg>